# xmcd CD database file
#
# Track frame offsets:
#	182
#	13125
#	27850
#	38060
#	55662
#	80102
#	93757
#	111287
#	124842
#	144015
#	145992
#	157877
#	163112
#	177720
#	191885
#
# Disc length: 2752 seconds
#
# Revision: 8
# Processed by: cddbd v1.5.2PL0 Copyright (c) Steve Scherf et al.
# Submitted via: CDex 1.92
#
DISCID=c90abe0f
DTITLE=Various Artist - White Mansions
DYEAR=1978
DGENRE=Country
TTITLE0=Jessi Colter - Story To Tell (Preface)
TTITLE1=Waylon Jennings - Dixie, Hold On
TTITLE2=John Dillon - Join Around the Flag
TTITLE3=Steve Cash - White Trash
TTITLE4=John Dillon and Jessi Colter - The Last Dance and the Kentucky Racehorse
TTITLE5=Steve Cash - Southern Boys
TTITLE6=Waylon Jennings and Jessi Colter - The Union Mare and the Confederate Grey
TTITLE7=John Dillon - No One Would Believe a Summer Could Be So Cold
TTITLE8=Waylon Jennings - The Southland's Bleeding
TTITLE9=John Dillon - Bring Up the Twelve Pounders
TTITLE10=John Dillon and Steve Cash with Waylon Jennings - They Laid Waste To Our Land
TTITLE11=Rodena Preston's Voices of Deliverence - Praise the Lord
TTITLE12=Steve Cash - The King Has Called Me Home
TTITLE13=John Dillon - Bad Man
TTITLE14=Waylon Jennings - Dixie, Now You're Done
EXTD=YEAR: 1978
EXTT0=
EXTT1=
EXTT2=
EXTT3=
EXTT4=
EXTT5=
EXTT6=
EXTT7=
EXTT8=
EXTT9=
EXTT10=
EXTT11=
EXTT12=
EXTT13=
EXTT14=
PLAYORDER=
